<?xml version="1.0" encoding="iso-8859-1"?>
<!-- Generator: Adobe Illustrator 19.1.0, SVG Export Plug-In . SVG Version: 6.00 Build 0)  -->
<svg version="1.1" id="Capa_1" xmlns="http://www.w3.org/2000/svg" xmlns:xlink="http://www.w3.org/1999/xlink" x="0px" y="0px"
	 viewBox="0 0 475.82 475.82" style="enable-background:new 0 0 475.82 475.82;" xml:space="preserve">
<g>
	<g id="XMLID_1_">
		<g>
			<path style="fill:#EFEA48;" d="M283.435,138.04c-17.27,4.69-32.83,13.55-45.52,25.44c-12.69-11.89-28.25-20.75-45.53-25.44v-25.2
				c0-7.15,5.79-12.94,12.94-12.94h18.55h28.07h18.55c7.15,0,12.94,5.79,12.94,12.94V138.04z"/>
			<path style="fill:#F93E3E;" d="M311.865,134.26c59.78,0,108.23,48.45,108.23,108.23c0,139.15-182.18,223.33-182.18,223.33
				s-182.19-75.59-182.19-223.33c0-59.78,48.46-108.23,108.23-108.23c9.84,0,19.37,1.32,28.43,3.78
				c17.28,4.69,32.84,13.55,45.53,25.44c12.69-11.89,28.25-20.75,45.52-25.44C292.495,135.58,302.025,134.26,311.865,134.26z"/>
		</g>
		<g>
			
				<line style="fill:none;stroke:#FFFFFF;stroke-width:20;stroke-linecap:round;stroke-linejoin:round;stroke-miterlimit:10;" x1="258.415" y1="130.07" x2="258.415" y2="147.94"/>
			<path style="fill:none;stroke:#000000;stroke-width:20;stroke-linejoin:round;stroke-miterlimit:10;" d="M192.385,138.04
				c-9.06-2.46-18.59-3.78-28.43-3.78c-59.77,0-108.23,48.45-108.23,108.23c0,147.74,182.19,223.33,182.19,223.33
				s182.18-84.18,182.18-223.33c0-59.78-48.45-108.23-108.23-108.23c-9.84,0-19.37,1.32-28.43,3.78
				c-17.27,4.69-32.83,13.55-45.52,25.44C225.225,151.59,209.665,142.73,192.385,138.04z"/>
			<path style="fill:none;stroke:#FFFFFF;stroke-width:20;stroke-linecap:round;stroke-linejoin:round;stroke-miterlimit:10;" d="
				M163.955,168.26c18.91,0,36.92,7.11,50.72,20.04"/>
			<path style="fill:none;stroke:#FFFFFF;stroke-width:20;stroke-linecap:round;stroke-linejoin:round;stroke-miterlimit:10;" d="
				M194.295,402.51c-46.46-31.55-104.57-85.85-104.57-160.02"/>
			<path style="fill:none;stroke:#FFFFFF;stroke-width:20;stroke-linecap:round;stroke-linejoin:round;stroke-miterlimit:10;" d="
				M237.305,427.92c-4.14-2.1-9.06-4.7-14.55-7.79"/>
			<path style="fill:none;stroke:#FFFFFF;stroke-width:20;stroke-linecap:round;stroke-linejoin:round;stroke-miterlimit:10;" d="
				M370.915,197.56c9.52,12.48,15.18,28.05,15.18,44.93c0,25.29-7.85,50.74-23.34,75.64c-5.46,8.79-11.87,17.52-19.17,26.15"/>
			<path style="fill:none;stroke:#FFFFFF;stroke-width:20;stroke-linecap:round;stroke-linejoin:round;stroke-miterlimit:10;" d="
				M311.865,168.26c9.73,0,19.03,1.88,27.55,5.3"/>
			<path style="fill:none;stroke:#000000;stroke-width:20;stroke-linejoin:round;stroke-miterlimit:10;" d="M283.435,138.04v-25.2
				c0-7.15-5.79-12.94-12.94-12.94h-18.55h-28.07h-18.55c-7.15,0-12.94,5.79-12.94,12.94v25.2"/>
			<path style="fill:none;stroke:#000000;stroke-width:20;stroke-linejoin:round;stroke-miterlimit:10;" d="M223.875,99.9
				l-7.53-65.72c-1.47-12.88,8.61-24.18,21.56-24.18h0.01c12.95,0,23.03,11.3,21.56,24.18l-7.53,65.72"/>
		</g>
	</g>
</g>
<g>
</g>
<g>
</g>
<g>
</g>
<g>
</g>
<g>
</g>
<g>
</g>
<g>
</g>
<g>
</g>
<g>
</g>
<g>
</g>
<g>
</g>
<g>
</g>
<g>
</g>
<g>
</g>
<g>
</g>
</svg>
