<svg id="Layer_3" enable-background="new 0 0 64 64" height="512" viewBox="0 0 64 64" width="512" xmlns="http://www.w3.org/2000/svg"><g><g><path d="m4 30v31h56v-31" fill="#60b69c"/></g><g><path d="m4 30h56v4h-56z" fill="#398469"/></g><g><path d="m2 18h60v12h-60z" fill="#60b69c"/></g><g><path d="m36 22-4-4-4 4v8h8z" fill="#ef7e68"/></g><g><path d="m32 18-13 13v-6h-6l7-7" fill="#ec482c"/></g><g><path d="m32 18 13 13v-6h6l-7-7" fill="#ec482c"/></g><g><path d="m28 34h8v27h-8z" fill="#ef7e68"/></g><g><path d="m28 30h8v4h-8z" fill="#ec482c"/></g><g><path d="m24 2c4.418 0 8 3.582 8 8v8h-8c-4.418 0-8-3.582-8-8 0-4.418 3.582-8 8-8z" fill="#ec482c"/></g><g><path d="m40 2c-4.418 0-8 3.582-8 8v8h8c4.418 0 8-3.582 8-8 0-4.418-3.582-8-8-8z" fill="#ec482c"/></g><g><path d="m38 6c-3.314 0-6 2.686-6 6v6h6c3.314 0 6-2.686 6-6 0-3.314-2.686-6-6-6z" fill="#fff"/></g><g><path d="m26 6c3.314 0 6 2.686 6 6v6h-6c-3.314 0-6-2.686-6-6 0-3.314 2.686-6 6-6z" fill="#fff"/></g><g><path d="m47 43v-4h4v4" fill="#ec482c"/></g><g><circle cx="49" cy="49" fill="#d1af67" r="7"/></g><g><path d="m48 30h2v9h-2z" fill="#c1c8d1"/></g><g><path d="m48 34h2v5h-2z" fill="#c4dcfc"/></g><g><path d="m51 49c0 1.103-.897 2-2 2v2c2.206 0 4-1.794 4-4z" fill="#f5e1a7"/></g><g><path d="m23.707 38.707-1.414-1.414-3.707 3.707h-1.586v-1.586l3.707-3.707-1.414-1.414-2.293 2.293v-3.586h-2v3.586l-2.293-2.293-1.414 1.414 3.707 3.707v1.586h-1.586l-3.707-3.707-1.414 1.414 2.293 2.293h-3.586v2h3.586l-2.293 2.293 1.414 1.414 3.707-3.707h1.586v1.586l-3.707 3.707 1.414 1.414 2.293-2.293v3.586h2v-3.586l2.293 2.293 1.414-1.414-3.707-3.707v-1.586h1.586l3.707 3.707 1.414-1.414-2.293-2.293h3.586v-2h-3.586z" fill="#c4dcfc"/></g><g><path d="m21 52h2v2h-2z" fill="#c4dcfc"/></g><g><path d="m21 56h2v2h-2z" fill="#c4dcfc"/></g><g><path d="m23 54h2v2h-2z" fill="#c4dcfc"/></g><g><path d="m19 54h2v2h-2z" fill="#c4dcfc"/></g><g><path d="m9 50h2v2h-2z" fill="#c4dcfc"/></g><g><path d="m9 54h2v2h-2z" fill="#c4dcfc"/></g><g><path d="m11 52h2v2h-2z" fill="#c4dcfc"/></g><g><path d="m7 52h2v2h-2z" fill="#c4dcfc"/></g></g></svg>