<svg height="512" viewBox="0 0 64 64" width="512" xmlns="http://www.w3.org/2000/svg"><g id="flat"><path d="m30 9h4a4 4 0 0 1 4 4v2a0 0 0 0 1 0 0h-4a4 4 0 0 1 -4-4v-2a0 0 0 0 1 0 0z" fill="#ad6327"/><path d="m38 27v4h-26v10a2 2 0 0 0 2 2h32v-16z" fill="#d3843d"/><path d="m6 26h2a4 4 0 0 1 4 4v4a0 0 0 0 1 0 0h-2a4 4 0 0 1 -4-4v-4a0 0 0 0 1 0 0z" fill="#ffd782"/><path d="m14 43h6a0 0 0 0 1 0 0v6a2 2 0 0 1 -2 2h-4a0 0 0 0 1 0 0v-8a0 0 0 0 1 0 0z" fill="#ad6327"/><path d="m12 57h4a2 2 0 0 1 2 2v2a0 0 0 0 1 0 0h-6a0 0 0 0 1 0 0v-4a0 0 0 0 1 0 0z" fill="#66342e"/><path d="m16 57h-4l2-6h4z" fill="#d3843d"/><path d="m24 43h6a0 0 0 0 1 0 0v4a2 2 0 0 1 -2 2h-4a0 0 0 0 1 0 0v-6a0 0 0 0 1 0 0z" fill="#ad6327"/><path d="m22 55h4a2 2 0 0 1 2 2v2a0 0 0 0 1 0 0h-6a0 0 0 0 1 0 0v-4a0 0 0 0 1 0 0z" fill="#66342e"/><path d="m26 55h-4l2-6h4z" fill="#d3843d"/><path d="m37 43h6a0 0 0 0 1 0 0v6a2 2 0 0 1 -2 2h-4a0 0 0 0 1 0 0v-8a0 0 0 0 1 0 0z" fill="#ad6327"/><path d="m37 57h4a2 2 0 0 1 2 2v2a0 0 0 0 1 0 0h-6a0 0 0 0 1 0 0v-4a0 0 0 0 1 0 0z" fill="#66342e"/><path d="m52 47h4a2 2 0 0 1 2 2v2a0 0 0 0 1 0 0h-6a0 0 0 0 1 0 0v-4a0 0 0 0 1 0 0z" fill="#66342e"/><path d="m37 51h4v6h-4z" fill="#d3843d"/><path d="m46 37h6v6h-6z" fill="#ad6327"/><path d="m52 37h4v10h-4z" fill="#d3843d"/><path d="m47 13h-9v10h16v-4z" fill="#d3843d"/><path d="m44 16h2v2h-2z" fill="#394d5c"/><path d="m54 19h2a2 2 0 0 1 2 2 2 2 0 0 1 -2 2h-2a0 0 0 0 1 0 0v-4a0 0 0 0 1 0 0z" fill="#da1c4b"/><path d="m42 4h-6v-2h-2v3a1 1 0 0 0 1 1h6v7h2v-8a1 1 0 0 0 -1-1z" fill="#66342e"/><path d="m51 4v2h-4v-4h-2v11h2v-5h5a1 1 0 0 0 1-1v-3z" fill="#66342e"/><path d="m36 23h12v4h-12z" fill="#55b56a"/><g fill="#ffd782"><path d="m26 34h2v2h-2z"/><path d="m30 36h2v2h-2z"/><path d="m34 34h2v2h-2z"/><path d="m22 36h2v2h-2z"/><path d="m18 34h2v2h-2z"/></g><path d="m42 40h-3v-2h2v-4h2v5a1 1 0 0 1 -1 1z" fill="#ad6327"/></g></svg>