<?xml version="1.0" encoding="iso-8859-1"?>
<!-- Generator: Adobe Illustrator 16.0.0, SVG Export Plug-In . SVG Version: 6.00 Build 0)  -->
<!DOCTYPE svg PUBLIC "-//W3C//DTD SVG 1.1//EN" "http://www.w3.org/Graphics/SVG/1.1/DTD/svg11.dtd">
<svg version="1.1" id="Capa_1" xmlns="http://www.w3.org/2000/svg" xmlns:xlink="http://www.w3.org/1999/xlink" x="0px" y="0px"
	 width="176.251px" height="176.252px" viewBox="0 0 176.251 176.252" style="enable-background:new 0 0 176.251 176.252;"
	 xml:space="preserve">
<g>
	<path d="M90.603,83.285c-1.551-1.833-1.182-3.539,0.276-4.327c1.827-0.97,3.541-0.443,5.092,1.376
		c0.264,0.314,0.47,0.627,0.654,0.958c-0.059-0.896,0.163-1.535,0.606-1.506c0.59,0.058,1.402,1.134,1.275,2.452
		c-0.095,1.058-0.759,1.933-1.328,2.228c-0.122,0.443-0.354,0.833-0.702,1.128C95.207,86.673,92.148,85.109,90.603,83.285z
		 M99.104,84.219c0.859-1.485,1.418-3.468,0.174-4.206c0.179,0.042,0.348,0.021,0.532,0.119c0.775,0.442,1.039,1.154,1.039,1.953
		l4.482,2.587c0.733,0.844,1.719,1.368,2.837,1.643l0.143,0.085c0.259,0.053,0.506,0.126,0.786,0.142
		c0.021,0.132,0.105,0.27,0.132,0.396c0.332,1.498,1.191,2.979,2.431,4.087c1.118,1.002,2.489,1.714,4.008,1.714
		c0.733,0,1.419-0.211,2.067-0.475c-1.013,2.131-1.614,4.462-1.614,6.961c0,2.12,0.443,4.219,1.309,6.26
		c-0.676,0.217-1.762,0.501-2.979,0.775c-6.813-0.443-14.692-2.637-15.204-2.457c-0.01,0.01-0.01,0.021-0.021,0.036
		c-0.443-0.479-0.802-0.896-1.118-1.297c0.907-4.098,4.145-9.856,6.35-13.458l-5.996-2.521c-0.775,0.575-1.661,0.839-2.558,0.332
		c-0.18-0.11-0.243-0.274-0.375-0.39C96.789,87.195,98.239,85.729,99.104,84.219z M103.227,101.376c0-0.85-0.68-1.535-1.523-1.535
		s-1.529,0.686-1.529,1.535c0,0.844,0.686,1.519,1.529,1.519S103.227,102.22,103.227,101.376z M103.67,94.573
		c-0.839,0-1.514,0.686-1.514,1.529s0.675,1.534,1.514,1.534c0.854,0,1.54-0.69,1.54-1.534S104.525,94.573,103.67,94.573z
		 M111.818,73.413c-0.723,0-1.297,0.577-1.297,1.289c0,0.715,0.574,1.292,1.297,1.292c0.707,0,1.281-0.577,1.281-1.292
		C113.099,73.99,112.514,73.413,111.818,73.413z M119.554,73.413c-0.723,0-1.292,0.577-1.292,1.289c0,0.715,0.569,1.292,1.292,1.292
		c0.712,0,1.281-0.577,1.281-1.292C120.835,73.99,120.266,73.413,119.554,73.413z M104.73,75.356c0-1.042,0.522-1.943,1.276-2.531
		c-0.116-0.021-0.231-0.098-0.295-0.227c-0.021-0.066-0.032-0.143-0.032-0.248c0-0.082-0.021-0.2-0.031-0.358
		c-0.127-1.031-0.4-3.449,1.334-5.411c0.343-0.377,0.754-0.706,1.208-1.015c2.088-6.03,9.392-9.785,13.595-9.785
		c0.602,0,1.007,0.093,1.287,0.253c-0.011-0.084-0.021-0.166-0.021-0.253c0-1.371,1.118-2.489,2.5-2.489
		c1.36,0,2.479,1.118,2.479,2.489s-1.118,2.489-2.479,2.489c-0.802,0-1.52-0.382-1.973-0.971c-0.132,1.712-1.551,4.752-0.053,8.504
		c0.321,0.24,0.606,0.493,0.865,0.772c1.734,1.956,1.46,4.38,1.334,5.41c-0.011,0.158-0.037,0.277-0.037,0.359
		c0,0.372-0.195,0.464-0.316,0.485c0.754,0.594,1.266,1.49,1.266,2.526c0,1.107-0.564,2.086-1.413,2.668
		c0.791,0.81,1.266,1.917,1.266,3.144c0,2.483-2.004,4.503-4.504,4.503c-0.189,0-0.363-0.021-0.548-0.053
		c0.01,0.016,0.01,0.037,0.01,0.053c0,2.663-2.584,6.191-5.779,6.191c-3.186,0-5.774-3.528-5.774-6.191c0-0.016,0-0.037,0-0.053
		c-0.185,0.032-0.343,0.053-0.532,0.053c-2.5,0-4.515-2.02-4.515-4.503c0-1.227,0.475-2.334,1.271-3.144
		C105.29,77.447,104.714,76.469,104.73,75.356z M119.554,81.091c0-0.717-1.74-0.862-3.887-0.862c-2.136,0-3.871,0.145-3.871,0.862
		c0,0.72,1.735,3.014,3.871,3.014C117.819,84.105,119.554,81.811,119.554,81.091z M125.085,72.788
		c-0.095-0.045-0.189-0.105-0.321-0.195c-0.754-0.519-3.032-2.091-9.097-2.091c-6.043,0-8.343,1.572-9.081,2.091
		c-0.126,0.09-0.227,0.15-0.316,0.195c0.823,3.892-0.137,5.737,1.825,6.057c1.477,0.245,4.936-0.768,5.938-1.326
		c0.306,0.469,0.918,0.656,1.635,0.656c0.733,0,1.34-0.192,1.65-0.656c1.008,0.559,4.456,1.571,5.928,1.332
		C125.217,78.531,124.232,76.68,125.085,72.788z M121.147,62.099l-0.533,0.478l-0.686-0.158l0.301,0.644l-0.369,0.609l0.712-0.079
		l0.464,0.533l0.138-0.691l0.653-0.274l-0.617-0.346L121.147,62.099z M119.96,57.833l-0.175,0.309l0.354-0.037l0.243,0.269
		l0.079-0.351l0.332-0.14l-0.322-0.185l-0.036-0.361l-0.264,0.243l-0.354-0.079L119.96,57.833z M119.829,60.079l-0.274,0.462
		l0.532-0.061l0.338,0.401l0.116-0.524l0.495-0.211l-0.464-0.264l-0.058-0.53l-0.386,0.356l-0.521-0.119L119.829,60.079z
		 M117.102,58.347l-0.18,0.314l0.349-0.042l0.231,0.274l0.09-0.355l0.332-0.14l-0.321-0.179l-0.037-0.361l-0.264,0.243l-0.358-0.082
		L117.102,58.347z M115.509,61.68l-0.76,1.269l1.467-0.169l0.98,1.118l0.295-1.45l1.361-0.58l-1.287-0.728l-0.116-1.474
		l-1.107,1.005l-1.439-0.335L115.509,61.68z M112.635,61.877l-0.274,0.461l0.527-0.066l0.343,0.406l0.116-0.524l0.496-0.206
		l-0.465-0.264l-0.053-0.536l-0.39,0.356l-0.522-0.113L112.635,61.877z M111.164,63.364l-0.189,0.312l0.354-0.042l0.248,0.269
		l0.073-0.355l0.332-0.14l-0.321-0.179l-0.021-0.361l-0.264,0.25l-0.363-0.087L111.164,63.364z M106.281,71.913
		c0.005,0.042,0.005,0.073,0.016,0.108c0.918-0.638,3.275-2.154,9.371-2.154c6.106,0,8.459,1.516,9.387,2.154
		c0.011-0.035,0.011-0.071,0.011-0.108c0.116-0.947,0.374-3.17-1.176-4.904c-1.482-1.664-4.251-2.511-8.222-2.511
		c-3.96,0-6.729,0.842-8.216,2.511C105.917,68.749,106.175,70.966,106.281,71.913z M115.667,75.736
		c-0.644,0-1.208,0.393-1.439,0.954c0.343-0.406,0.844-0.67,1.429-0.67c0.586,0,1.107,0.288,1.456,0.72
		C116.885,76.155,116.332,75.736,115.667,75.736z M122.27,86.573l-0.032-0.026l-0.031,0.068L122.27,86.573z M173.211,121.108
		c0,0.896-0.744,1.625-1.646,1.625H83.647c-3.293,0-5.978-2.685-5.978-5.98c0-3.301,2.685-5.98,5.978-5.98
		c0.902,0,1.638,0.738,1.638,1.646c0,0.901-0.736,1.63-1.638,1.63c-1.5,0-2.726,1.229-2.726,2.716c0,1.503,1.226,2.731,2.726,2.731
		h10.21l2.752-4.788h-3.912c-4.237,0-7.671-3.434-7.671-7.679c0-2.752,1.458-5.136,3.623-6.496l-48.513-1.751
		c-0.005,0.042-0.045,0.105-0.045,0.137c-0.068,1.366,3.409,5.432,6.913,7.229c3.494,1.788,6.395,0.96,7.829,1.641
		c1.442,0.686,1.669,3.913,3.37,4.609c1.701,0.69,12.62,4.946,12.285,6.496c-0.335,1.562-13.121-5.305-14.341-5.036
		c1.393,2.368,12.311,7.726,11.609,8.918c-0.706,1.213-10.275-3.892-11.965-5.484c-1.69-1.604-2.787-3.491-5.11-4.515
		c-2.331-1.012-11.578-0.211-16.068-3.143c-0.709-0.453-3.723,1.835-7.464,2.637c-4.287,0.912-8.023-0.453-10.832,0.807
		c-2.473,1.103-7.781-3.211-9.062-2.789c-0.62,0.184,1.021,1.94,3.133,3.063c2.966,1.587,3.905,3.021,3.296,3.333
		c-1.205,0.627-3.431,0.532-3.431,0.532s0.949,2.742-0.401,2.342c-1.332-0.391-11.235-12.909-9.687-14.35
		c1.556-1.429,8.295-0.369,8.295-0.369S7.14,97.315,8.366,93.06c1.221-4.251,5.893-8.338,5.87-9.819
		c-0.016-1.479-4.396-3.808-4.396-3.808s-2.001-2.001-0.485-2.272c0.762-0.129,4.234-0.438,6.919-0.997
		c2.31-0.487,3.38-1.092,4.617-1.142c-0.606-1.964-1.838-5.118-2.787-5.788c-0.258-0.185-0.319-0.545-0.145-0.809
		c0.182-0.267,0.549-0.325,0.81-0.153c1.149,0.804,2.223,3.462,2.808,5.168c0.635-1.005,1.537-1.798,2.634-2.455
		c0.438-0.638,3.071-4.604,2.236-7.49c-0.34-1.163-1.195-1.988-2.624-2.545c-0.298-0.118-0.448-0.453-0.33-0.749
		c0.108-0.303,0.448-0.448,0.749-0.334c1.756,0.675,2.874,1.785,3.312,3.304c0.686,2.323-0.427,5.065-1.371,6.813
		c1.176-0.506,2.468-0.943,3.805-1.381c0.601-0.944,3.512-5.875,0.488-8.472c-0.237-0.211-0.267-0.578-0.056-0.82
		c0.201-0.243,0.578-0.277,0.817-0.061c3.012,2.597,1.5,6.697,0.393,8.819c1.406-0.459,2.803-0.946,4.092-1.529
		c0.443-0.39,4.09-3.781,1.368-6.982c-0.216-0.248-0.189-0.617,0.059-0.828c0.248-0.203,0.617-0.172,0.82,0.065
		c1.833,2.16,1.426,4.478,0.427,6.265c2.209-1.54,3.754-3.694,3.905-7.069c0.016-0.324,0.285-0.567,0.593-0.557
		c0.33,0.021,0.572,0.293,0.562,0.604c-0.274,6.007-4.453,8.554-9.022,10.283c0.83,1.306,3.401,4.351,8.369,2.7
		c0.298-0.113,0.633,0.058,0.741,0.361c0.093,0.309-0.061,0.633-0.366,0.741c-0.417,0.14-0.823,0.242-1.2,0.327
		c-5.163,1.113-7.863-2.434-8.651-3.731c-0.805,0.277-1.604,0.541-2.387,0.788c-3.699,1.205-7.225,2.355-8.538,4.823
		c1.88-0.114,3.839,0.503,5.843,1.489c0.978-0.443,2.974-1.593,3.375-3c0.166-0.627,0.016-1.247-0.475-1.912
		c-0.201-0.261-0.148-0.622,0.113-0.814c0.253-0.195,0.62-0.143,0.814,0.118c0.712,0.96,0.934,1.943,0.649,2.927
		c-0.443,1.577-2.112,2.732-3.219,3.352c1.025,0.58,2.069,1.226,3.09,1.901c1.192-0.28,3.697-1.113,4.179-2.376
		c0.177-0.475,0.058-0.989-0.385-1.582c-0.187-0.253-0.145-0.62,0.119-0.814c0.25-0.19,0.622-0.135,0.799,0.124
		c0.693,0.917,0.886,1.825,0.557,2.684c-0.572,1.495-2.598,2.371-3.969,2.813c0.135,0.092,0.267,0.182,0.406,0.274
		c1.366,0.907,2.71,1.793,4,2.555c1.962-0.411,5.033-1.469,5.563-2.787c0.053-0.155,0.232-0.609-0.309-1.345
		c-0.195-0.258-0.15-0.625,0.113-0.814c0.248-0.19,0.628-0.135,0.81,0.124c0.768,1.025,0.68,1.901,0.459,2.452
		c-0.665,1.69-3.37,2.7-5.129,3.185c2.104,1.065,4.061,1.648,5.756,1.189c1.521-0.406,2.787-1.637,3.823-3.755
		c0.145-0.29,0.496-0.408,0.778-0.264c0.301,0.14,0.403,0.491,0.269,0.778c-1.21,2.447-2.7,3.865-4.566,4.363
		c-0.098,0.026-0.185,0.048-0.282,0.074c-3.235,0.696-6.874-1.456-10.729-3.995c-0.288,1.29-0.509,3.375,0.351,4.401
		c0.475,0.564,1.247,0.775,2.354,0.638c0.319-0.042,0.609,0.19,0.654,0.512c0.032,0.301-0.158,0.564-0.461,0.633
		c-0.021,0.011-0.037,0.016-0.053,0.011c-1.511,0.185-2.652-0.169-3.386-1.061c-1.387-1.655-0.788-4.701-0.498-5.819
		c-0.053-0.04-0.119-0.077-0.166-0.114c-0.491-0.329-0.989-0.659-1.49-0.978c-3.488-2.284-6.998-4.324-10.006-3.99
		c0.701,1.037,0.749,3.396,0.749,3.396s1.374,0.557,2.015,0.859c1.695,0.791-2.666,1.732-2.666,1.732l-1.427,1.097
		c0,0-1.901,11.204-1.851,13.629c0.005,0.132,0.037,0.279,0.053,0.416l15.773,0.564c1.173-0.084,2.117-0.042,2.479-0.416
		c1.179-1.208,3.267-3.597,4.174-3.038c0.654,0.401-0.335,2.194-0.954,3.671L93.55,99.34c0.063,0,0.105,0.053,0.158,0.074
		c2.563,0.405,1.793,2.473,6.519,6.623c5.294,4.625,18.42,0,18.42,0c-1.023-2.067-1.64-4.355-1.64-6.792
		c0-8.543,6.913-15.448,15.445-15.448h0.87c2.959,0,5.495,1.706,6.739,4.185c0.063-0.902,0.781-1.635,1.698-1.635
		c0.971,0,1.751,0.78,1.751,1.756v19.084l1.756,0.817l1.028-2.726l3.038,1.16l-1.118,2.963l1.191,0.554l1.16-3.042l3.038,1.149
		l-1.245,3.274l4.704,2.21l4.129-0.527l-0.11-0.158l0.4-0.18c0.174-0.084,0.338-0.137,0.507-0.211
		c-0.533-0.116-0.944-0.548-1.055-1.134l-4.071,0.533l-0.364-2.869l6.893-0.886l0.211,1.587c0.222,0.143,0.422,0.306,0.585,0.453
		c0.059-0.036,0.122-0.068,0.185-0.068l0.248-0.031c0.079-0.011,0.143-0.011,0.211,0.011c0.111-0.19,0.279-0.391,0.448-0.575
		l-0.2-1.587l1.514-0.2l0.1,0.748l0.264-0.105c0.274-0.095,0.544-0.062,0.744,0.09c0.406,0.322,0.479,1.018,0.554,1.63l0.011,0.2
		c0.062,0.422-0.032,0.807-0.259,1.092c-0.121,0.168-0.285,0.301-0.47,0.396c0.175,0.031,0.349,0.053,0.549,0.079l0.443,0.058
		l-0.19,0.433c-0.073,0.158,0.063,0.543,0.147,0.802c0.132,0.39,0.243,0.706,0.085,0.991c-0.063,0.1-0.169,0.222-0.411,0.242
		l-0.074,0.011c-0.18,0.011-0.4-0.063-0.654-0.174l0.285,2.157l5.041-3.977c0.153-0.949,1.039-1.582,2.021-1.445
		c0.965,0.158,1.608,1.065,1.45,2.025l-6.719,6.513h2.072C172.467,119.469,173.211,120.202,173.211,121.108z M30.583,98.412
		l-11.201-0.396c0.833,1.861,2.9,3.443,6.096,2.6C27.04,100.194,28.837,99.219,30.583,98.412z M123.409,119.469l-2.753-4.783
		h-20.481l-2.753,4.783H123.409z M140,94.805c-1.25,2.426-3.755,4.108-6.677,4.108c-0.021,0-0.026,0-0.037,0
		c0.006,0.11,0.037,0.216,0.037,0.332c0,8.517,0.105,15.44-8.438,15.44h-0.611l2.753,4.783v-0.005H140V94.805z M166.303,117.443
		l-0.591-4.614c-0.285-0.295-0.527-0.622-0.712-0.949c-0.037,0.021-0.09,0.032-0.137,0.032l-0.243,0.036c-0.042,0-0.1,0.011-0.143,0
		c-0.105,0.364-0.253,0.744-0.432,1.113l0.511,3.986l1.424,0.665L166.303,117.443z M168.085,114.026
		c0.011-0.005,0.021-0.005,0.031-0.011c0.564-0.1-0.363-1.229-0.089-1.846c-1.028-0.142-1.799-0.29-2.526-0.88
		c0.253,0.115,0.549,0.2,0.875,0.231l0.369,0.042c0.755,0.063,1.287-0.49,1.187-1.233l-0.005-0.021
		c-0.105-0.749-0.163-1.909-0.865-1.65l-0.348,0.121c-0.622,0.232-1.561,1.25-1.74,1.751c-0.095-0.105-0.185-0.158-0.295-0.137
		l-0.254,0.021c-0.115,0.016-0.189,0.105-0.258,0.222c-0.29-0.438-1.461-1.182-2.125-1.234l-0.38-0.047
		c-0.749-0.074-0.517,1.064-0.411,1.819v0.021c0.105,0.729,0.748,1.14,1.455,0.887l0.348-0.133c0.316-0.126,0.58-0.279,0.791-0.458
		c-0.548,0.774-1.255,1.097-2.209,1.508c0.442,0.543-0.237,1.931,0.427,1.804c0.591-0.132,1.993-1.914,2.184-3.406
		c0.084,0.126,0.2,0.231,0.337,0.2l0.237-0.032c0.122-0.01,0.217-0.126,0.27-0.284C165.66,112.697,167.479,114.053,168.085,114.026z
		 M162.749,113.02c0.248,0.3-0.227,0.686,0.138,0.622c0.363-0.095,1.271-1.819,1.229-2.236
		C163.783,112.144,163.423,112.729,162.749,113.02z M165.939,111.1l0.211,0.026c0.433,0.031,0.728-0.274,0.675-0.701v-0.011
		c-0.058-0.427-0.427-0.648-0.827-0.495l-0.201,0.068c-0.4,0.143-0.706,0.448-0.675,0.659
		C165.154,110.857,165.506,111.068,165.939,111.1z M164.046,110.763c-0.021-0.201-0.375-0.412-0.802-0.454l-0.222-0.021
		c-0.422-0.043-0.723,0.273-0.67,0.695v0.021c0.068,0.422,0.428,0.644,0.817,0.512l0.2-0.09
		C163.792,111.295,164.078,110.983,164.046,110.763z M166.957,112.471c-0.732-0.116-1.218-0.58-1.724-1.224
		c0.058,0.433,1.376,1.878,1.756,1.861C167.369,113.099,166.798,112.819,166.957,112.471z M156.4,106.997l0.58,0.391l-2.025-0.053
		c0.4-0.676,1.134-1.951,0.464-2.426c-1.329-0.949-3.854-0.949-4.061-1.52c-0.021-0.021-0.042-0.021-0.068-0.031
		c-0.058,0.011-0.189,0.011-0.332,0.031c-1.155,0.068-1.925-1.17-3.533-1.556c-1.16-0.29-1.904,1.556-2.995,1.118l0.273-1.54
		c0.475,0.259,1.266-1.45,2.521-1.187c1.196,0.248,1.84,1.562,2.726,2.384c-0.321-0.501-0.543-1.202-0.574-1.993
		c-0.059-1.551,0.644-2.826,1.571-2.848c0.918-0.042,1.709,1.191,1.762,2.742c0.005,0.116,0,0.227-0.006,0.338
		c0.817-0.57,1.63-0.781,1.925-0.443c0.332,0.385-0.137,1.34-1.049,2.131c-0.575,0.495-1.197,0.801-1.651,0.875
		c1.219,0.485,2.869-0.116,4.367,0.77C157.127,104.688,157.708,105.911,156.4,106.997z M152.128,101.344c0-0.053,0.01-0.11,0-0.158
		c-0.032-0.991-0.549-1.771-1.118-1.745c-0.586,0.016-1.034,0.833-1.002,1.809c0.031,0.865,0.416,1.571,0.907,1.725
		c0.005,0,0.01,0,0.01,0c0.063,0.016,0.132,0.031,0.206,0.031c0.026,0,0.058-0.021,0.079-0.021
		C151.189,102.572,151.527,101.945,152.128,101.344z M151.463,102.884c0.296-0.189,0.517-0.569,0.612-1.055
		C151.674,102.209,151.443,102.62,151.463,102.884z M151.743,103.174c0.301,0.021,0.786-0.19,1.239-0.564
		c0.575-0.506,0.887-1.107,0.665-1.366c-0.158-0.174-0.56-0.11-0.991,0.143C152.54,102.198,152.202,102.842,151.743,103.174z
		 M146.126,104.898l3.038,1.16l0.928-2.426l-3.037-1.16L146.126,104.898z M150.989,106.733l3.043,1.165l0.928-2.437l-3.042-1.16
		L150.989,106.733z M160.619,100.638l0.185-0.059c0.385-0.132,0.664-0.363,0.633-0.517c-0.017-0.143-0.354-0.269-0.775-0.269h-0.2
		c-0.386,0-0.676,0.253-0.623,0.537C159.896,100.638,160.239,100.779,160.619,100.638z M160.207,101.745
		c0.232,0.2-0.211,0.517,0.122,0.432c0.343-0.095,1.218-1.376,1.149-1.661C161.156,101.069,160.839,101.476,160.207,101.745z
		 M164.157,101.523c0.354-0.053-0.153-0.2-0.005-0.454c-0.681-0.042-1.145-0.337-1.625-0.732
		C162.58,100.638,163.814,101.534,164.157,101.523z M163.392,100.184c0.38,0,0.675-0.253,0.633-0.554v-0.016
		c-0.063-0.295-0.411-0.417-0.786-0.295l-0.189,0.073c-0.374,0.116-0.67,0.349-0.638,0.507c0.031,0.158,0.379,0.284,0.785,0.284
		H163.392z M159.822,93.771l0.938,5.495c0.312,0.1,0.597,0.231,0.797,0.358c0.068-0.026,0.116-0.048,0.189-0.059l0.232-0.047
		c0.053-0.011,0.121-0.011,0.185-0.011c0.147-0.189,0.38-0.422,0.644-0.602l-0.944-5.494l3.775-0.644l2.3,2.974l-0.538,2.616
		l-2.167,0.363c0.047,0.169,0.084,0.364,0.121,0.554l0.021,0.127c0.053,0.295-0.047,0.569-0.231,0.791
		c-0.132,0.132-0.279,0.232-0.454,0.316c0.158,0,0.322,0.011,0.507,0.011l0.411,0.016l-0.132,0.248l1.492-0.264l-0.991,4.799
		l-2.03,0.353l-0.696-4.086c-0.363-0.243-0.706-0.518-0.934-0.812c-0.053,0.011-0.105,0.021-0.147,0.021l-0.2,0.042
		c-0.058,0.011-0.105,0.011-0.147,0.011c-0.121,0.369-0.343,0.748-0.602,1.097l0.691,4.081l-2.03,0.343l-2.505-4.202l1.492-0.254
		l-0.222-0.179l0.391-0.143c0.158-0.079,0.332-0.127,0.464-0.19c-0.538-0.047-0.938-0.332-1.018-0.785l-0.026-0.158
		c-0.043-0.18-0.063-0.375-0.074-0.564l-2.173,0.38l-1.371-2.305l1.187-3.56L159.822,93.771z M159.553,99.245h-0.343
		c-0.696,0-0.485,0.785-0.385,1.297v0.016c0.084,0.522,0.706,0.755,1.35,0.533l0.332-0.121c0.285-0.101,0.538-0.227,0.728-0.364
		c-0.521,0.58-1.181,0.854-2.066,1.208c0.405,0.354-0.228,1.381,0.385,1.233c0.559-0.121,1.883-1.471,2.057-2.547
		c0.09,0.105,0.2,0.138,0.321,0.116l0.222-0.042c0.121-0.011,0.206-0.095,0.269-0.217c0.527,0.944,2.21,1.772,2.774,1.72
		c0.633-0.068-0.306-0.828-0.032-1.292c-0.97-0.048-1.688-0.074-2.356-0.454c0.221,0.074,0.495,0.105,0.796,0.105l0.358-0.01
		c0.696,0.01,1.192-0.422,1.097-0.929v-0.021c-0.084-0.527-0.147-1.329-0.801-1.098l-0.333,0.121c-0.585,0.19-1.46,0.986-1.64,1.346
		c-0.074-0.074-0.174-0.105-0.285-0.085l-0.221,0.037c-0.111,0.016-0.18,0.073-0.232,0.163
		C161.272,99.678,160.175,99.245,159.553,99.245z M146.539,83.467l-0.823-1.748c0.507,0.042,0.316-0.881,1.466-1.194
		c1.107-0.295,2.268,1.725,3.365,2.128c-0.485-0.33-0.971-0.912-1.318-1.659c-0.686-1.456-0.639-3.016,0.11-3.454
		c0.754-0.454,1.914,0.367,2.621,1.83c0.042,0.108,0.09,0.217,0.126,0.33c0.433-0.928,1.039-1.5,1.414-1.303
		c0.442,0.216,0.453,1.355,0.026,2.528c-0.29,0.728-0.665,1.3-1.019,1.572c1.25,0.232,1.983-3.277,3.618-3.106
		c0.886,0.103,1.25,1.717,0.031,2.84c0.485-0.636,0.754-1.393-0.011-1.543c-1.519-0.298-2.91,2.959-4.129,2.062
		c-0.026,0.01-0.042,0.01-0.063,0.01c-0.047,0.032-0.147,0.092-0.269,0.174c-0.928,0.577-2.5-1.21-4.003-0.865
		C146.601,82.317,147.625,83.393,146.539,83.467z M152.254,82.344c0.274-0.101,0.569-0.512,0.791-1.089
		c0.285-0.746,0.279-1.464,0-1.606c-0.211-0.1-0.506,0.137-0.775,0.575C152.498,81.06,152.492,81.837,152.254,82.344z
		 M151.896,82.209c0.18-0.303,0.189-0.777,0.074-1.294C151.801,81.452,151.775,81.956,151.896,82.209z M151.474,82.539
		c0,0,0.011-0.006,0.021-0.006c0.058-0.021,0.115-0.031,0.168-0.076c0.021-0.005,0.043-0.021,0.074-0.047
		c-0.206-0.377-0.185-1.144,0.074-1.983c-0.021-0.053-0.043-0.108-0.063-0.155c-0.443-0.934-1.202-1.453-1.677-1.166
		c-0.475,0.28-0.507,1.269-0.069,2.191C150.393,82.111,151,82.621,151.474,82.539z M143.364,86.979l-0.285-3.204l16.807-1.49
		l0.279,3.207l-3.069,0.274c-0.484,0.432-0.785,1.08-0.728,1.793c0.116,1.17,1.149,2.035,2.331,1.93
		c0.279-0.031,0.554-0.116,0.791-0.237l0.316,3.518l-10.262,0.917c0.247-0.39,0.39-0.854,0.337-1.36
		c-0.11-1.213-1.171-2.109-2.389-1.988c-1.208,0.101-2.114,1.166-1.999,2.379c0.043,0.495,0.248,0.938,0.57,1.281l-1.028,0.09
		l-0.639-7.204L143.364,86.979z M155.403,90.792c0.058,0.638,0.622,1.112,1.25,1.06c0.644-0.053,1.118-0.633,1.065-1.266
		c-0.059-0.638-0.623-1.112-1.256-1.044C155.82,89.595,155.345,90.153,155.403,90.792z M149.802,89.305
		c0.111,1.239,1.208,2.136,2.437,2.03s2.136-1.191,2.025-2.415c-0.111-1.239-1.187-2.146-2.41-2.036
		C150.609,86.984,149.697,88.065,149.802,89.305z M145.115,88.118c0.053,0.633,0.616,1.118,1.255,1.055
		c0.648-0.053,1.118-0.617,1.055-1.261c-0.053-0.638-0.612-1.123-1.261-1.06C145.526,86.905,145.056,87.475,145.115,88.118z
		 M159.29,87.812l-0.2-0.095l0.095,0.337c0,0.032,0,0.068-0.021,0.101c-0.021,0.01-0.042,0.016-0.063,0.016
		c-0.01,0-0.031,0-0.042-0.006l-0.38-0.163l0.021,0.232l0.622,0.532c0.042,0.021,0.042,0.079,0.011,0.121
		c-0.011,0.021-0.042,0.032-0.063,0.032c-0.026,0-0.058-0.011-0.073-0.021l-0.485-0.4l0.037,0.374
		c0.005,0.059-0.037,0.101-0.101,0.101c-0.053,0.021-0.101-0.032-0.101-0.085l-0.031-0.379l-0.4,0.495
		c-0.021,0.032-0.079,0.042-0.122,0.005c-0.042-0.036-0.042-0.089-0.01-0.126l0.521-0.617l-0.016-0.222l-0.348,0.222
		c-0.032,0.021-0.063,0.021-0.096,0c-0.042-0.021-0.062-0.063-0.053-0.095l0.032-0.338l-0.18,0.121l-0.137,0.786
		c0,0.053-0.042,0.09-0.09,0.09c-0.005,0.005-0.011,0-0.016,0c-0.053-0.011-0.085-0.058-0.074-0.11l0.105-0.617l-0.316,0.211
		c-0.011,0.016-0.031,0.026-0.053,0.026c-0.021,0-0.063-0.011-0.084-0.053c-0.037-0.042-0.021-0.09,0.021-0.122l0.327-0.221
		l-0.622-0.111c-0.063,0-0.095-0.062-0.084-0.11c0.01-0.048,0.062-0.09,0.11-0.074l0.786,0.143l0.264-0.179l-0.354-0.285
		c-0.026-0.037-0.032-0.068-0.026-0.105c0.005-0.042,0.037-0.074,0.063-0.074l0.137-0.042l-0.137-0.058l-0.76,0.279
		c-0.005,0-0.031,0.011-0.031,0.011c-0.043,0-0.074-0.021-0.105-0.069c-0.017-0.042,0.01-0.1,0.062-0.11l0.586-0.222l-0.343-0.163
		c-0.042-0.011-0.063-0.068-0.042-0.121c0.01-0.042,0.062-0.063,0.121-0.042l0.332,0.152l-0.211-0.585
		c-0.021-0.037,0.011-0.09,0.074-0.111c0.036-0.026,0.089,0.011,0.115,0.059l0.264,0.78l0.343,0.143l0.09-0.011l0.18-0.47
		l-0.006-0.095l-0.627-0.538c-0.037-0.031-0.042-0.084-0.011-0.126c0.031-0.032,0.095-0.042,0.127-0.011l0.479,0.4l-0.037-0.369
		c-0.005-0.062,0.037-0.105,0.095-0.105c0.043-0.01,0.105,0.032,0.111,0.085l0.031,0.369l0.396-0.48
		c0.026-0.042,0.09-0.042,0.121-0.01c0.048,0.027,0.048,0.089,0.017,0.132l-0.522,0.622l0.005,0.095l0.264,0.433h0.085l0.321-0.217
		l0.059-0.321l0.053,0.485l-0.122,0.068l0.132,0.011l0.011,0.231l-0.242,0.274l0.284,0.121l0.037,0.48L159.29,87.812z
		 M158.846,87.569c-0.011-0.037,0-0.073,0.021-0.09l0.242-0.289l-0.374-0.032c-0.026,0-0.059-0.011-0.079-0.042l-0.185-0.332
		l-0.147,0.354c-0.006,0.031-0.032,0.062-0.063,0.068l-0.369,0.084l0.301,0.232c0.021,0.037,0.031,0.058,0.031,0.09l-0.031,0.379
		l0.326-0.2c0.017-0.021,0.026-0.021,0.048-0.021c0.005,0,0.037,0,0.048,0l0.343,0.152L158.846,87.569z M145.731,88.34l-0.332-0.063
		c-0.021,0-0.042-0.031-0.042-0.063c0-0.026,0.031-0.048,0.063-0.042l0.433,0.074l0.137-0.09l-0.189-0.164
		c-0.021-0.01-0.021-0.031-0.021-0.058c0-0.011,0.021-0.026,0.042-0.037l0.074-0.016l-0.074-0.037l-0.422,0.158
		c-0.011,0-0.011,0-0.011,0c-0.021,0-0.042-0.011-0.053-0.037c-0.01-0.026,0-0.053,0.032-0.068l0.327-0.116l-0.19-0.09
		c-0.026-0.021-0.037-0.047-0.026-0.078c0.016-0.021,0.042-0.032,0.068-0.021l0.18,0.1l-0.116-0.332
		c-0.011-0.031,0.011-0.058,0.048-0.068c0.016-0.021,0.053,0,0.058,0.026l0.153,0.417l0.185,0.09l0.053-0.011l0.095-0.253v-0.063
		l-0.332-0.285c-0.037-0.016-0.037-0.042-0.026-0.073c0.026-0.021,0.063-0.032,0.084-0.011l0.264,0.222l-0.021-0.211
		c0-0.021,0.021-0.043,0.062-0.053c0.021,0,0.053,0.021,0.053,0.053l0.011,0.2l0.222-0.253c0.021-0.032,0.053-0.032,0.074-0.021
		c0.021,0.021,0.026,0.063,0.01,0.074l-0.295,0.342l0.011,0.059l0.137,0.232l0.053,0.01l0.158-0.121l0.085-0.433
		c0.01-0.031,0.042-0.058,0.068-0.047c0.026,0,0.047,0.031,0.037,0.063l-0.074,0.348l0.158-0.111
		c0.031-0.016,0.068-0.016,0.084,0.011c0.017,0.026,0.011,0.069-0.01,0.079l-0.175,0.111l0.333,0.053
		c0.031,0.021,0.053,0.058,0.042,0.068c0,0.031-0.021,0.042-0.042,0.042c-0.011,0.011-0.011,0.011-0.011,0l-0.454-0.073
		l-0.058,0.042l0.079,0.011c0.011,0.01,0.031,0.01,0.053,0.031c0,0.021,0,0.042-0.021,0.058l-0.163,0.19l0.153,0.068l0.422-0.147
		c0.031-0.011,0.058,0.011,0.079,0.031c0.005,0.021-0.017,0.068-0.048,0.074l-0.316,0.116l0.174,0.089
		c0.032,0.011,0.048,0.037,0.032,0.069c-0.006,0.01-0.032,0.021-0.043,0.021c-0.005,0-0.021,0-0.026,0l-0.185-0.084l0.111,0.327
		c0.021,0.031,0,0.062-0.021,0.073c0,0-0.011,0-0.021,0c-0.021,0-0.043-0.011-0.048-0.031l-0.153-0.422l-0.11-0.053l0.053,0.179
		c0.005,0.011,0,0.043-0.016,0.053c-0.006,0.011-0.021,0.021-0.037,0.021c-0.005,0-0.011,0-0.016-0.011l-0.211-0.09l0.011,0.111
		l0.337,0.3c0.032,0.011,0.032,0.048,0.011,0.063c-0.011,0.021-0.021,0.021-0.031,0.026c-0.021,0-0.032-0.005-0.048-0.021
		l-0.264-0.217l0.026,0.206c0,0.031-0.026,0.063-0.048,0.063c-0.031,0.011-0.068-0.021-0.068-0.059l-0.021-0.194l-0.211,0.264
		c-0.021,0.021-0.053,0.031-0.085,0.01c-0.016-0.021-0.016-0.058-0.005-0.079l0.29-0.332l-0.011-0.121l-0.189,0.121
		c-0.021,0-0.043,0-0.053,0c-0.021-0.011-0.032-0.021-0.032-0.053L146,88.287l-0.101,0.068l-0.079,0.438
		c-0.011,0.026-0.021,0.042-0.053,0.053c0,0,0,0-0.016,0c-0.026-0.011-0.053-0.037-0.037-0.063l0.063-0.348l-0.169,0.132
		c-0.011,0.005-0.011,0.011-0.031,0.011c-0.011,0-0.032-0.011-0.042-0.037c-0.021-0.011-0.017-0.053,0.01-0.063L145.731,88.34z
		 M146.1,88.118c0.011,0.005,0.026,0.021,0.026,0.042l-0.026,0.2l0.164-0.115c0.011-0.011,0.021-0.011,0.031-0.011
		c0,0,0.026,0,0.032,0l0.179,0.089l-0.053-0.194c0-0.017,0-0.037,0.021-0.053l0.121-0.147l-0.2-0.017
		c-0.026,0-0.037-0.016-0.042-0.026l-0.111-0.174l-0.09,0.185c0,0.016-0.021,0.032-0.031,0.037l-0.206,0.048L146.1,88.118z
		 M150.989,89.742l-0.644-0.116c-0.042-0.01-0.095-0.053-0.073-0.11c0-0.058,0.053-0.101,0.11-0.09l0.839,0.147l0.274-0.189
		l-0.386-0.312c-0.021-0.021-0.036-0.063-0.031-0.11c0.011-0.031,0.037-0.063,0.074-0.074l0.137-0.037l-0.132-0.058l-0.802,0.285
		c0,0.011-0.011,0.021-0.021,0.021c-0.053,0-0.096-0.031-0.111-0.073c-0.021-0.037,0.006-0.105,0.059-0.116l0.627-0.232
		l-0.363-0.168c-0.043-0.011-0.069-0.074-0.043-0.116c0.011-0.053,0.074-0.069,0.127-0.053l0.348,0.158l-0.221-0.606
		c-0.011-0.059,0.01-0.111,0.062-0.111c0.048-0.037,0.105,0,0.116,0.053l0.296,0.791l0.363,0.169l0.09-0.016l0.189-0.501
		l-0.01-0.101l-0.654-0.554c-0.058-0.021-0.058-0.1-0.011-0.137c0.021-0.042,0.095-0.042,0.127-0.016l0.501,0.422l-0.026-0.396
		c-0.006-0.053,0.026-0.095,0.095-0.095c0.042-0.011,0.095,0.031,0.101,0.084l0.036,0.396l0.433-0.512
		c0.026-0.042,0.095-0.042,0.127-0.011c0.053,0.032,0.053,0.09,0.011,0.127l-0.554,0.659l0.026,0.11l0.264,0.454h0.1l0.322-0.232
		l0.137-0.833c0.016-0.053,0.063-0.095,0.116-0.084c0.053,0,0.09,0.053,0.084,0.11l-0.116,0.644l0.333-0.222
		c0.047-0.037,0.11-0.026,0.132,0.021c0.031,0.037,0.01,0.101-0.021,0.122l-0.327,0.242l0.654,0.11c0.047,0,0.084,0.059,0.068,0.111
		c-0.005,0.042-0.048,0.079-0.09,0.09c-0.011-0.006-0.011-0.006-0.021-0.006l-0.844-0.143l-0.116,0.09l0.137,0.011
		c0.037,0,0.074,0.021,0.095,0.058c0.011,0.032,0,0.08-0.021,0.111l-0.316,0.363l0.29,0.133l0.807-0.301
		c0.042-0.011,0.101,0.016,0.127,0.068c0.01,0.047-0.017,0.105-0.069,0.11l-0.596,0.228l0.349,0.168
		c0.053,0.021,0.068,0.085,0.053,0.127c-0.017,0.031-0.053,0.053-0.085,0.053c-0.031,0-0.042,0-0.063,0l-0.348-0.169l0.227,0.612
		c0.026,0.058-0.005,0.115-0.058,0.131c-0.021,0-0.021,0-0.032,0c-0.042,0.006-0.084-0.016-0.105-0.062l-0.29-0.797l-0.205-0.105
		l0.095,0.349c0.011,0.042,0,0.079-0.037,0.11c-0.011,0.011-0.037,0.011-0.053,0.011c-0.011,0.005-0.037,0.005-0.047,0l-0.396-0.163
		l0.016,0.231l0.653,0.56c0.043,0.031,0.048,0.095,0.011,0.137c-0.011,0.021-0.037,0.031-0.073,0.031
		c-0.011,0-0.043-0.01-0.063-0.031l-0.512-0.422l0.031,0.4c0.017,0.053-0.031,0.111-0.089,0.111c-0.063,0-0.105-0.037-0.105-0.101
		l-0.043-0.39l-0.422,0.517c-0.036,0.047-0.095,0.047-0.137,0.005c-0.042-0.026-0.053-0.1-0.021-0.132l0.564-0.653l-0.021-0.232
		l-0.354,0.232c-0.048,0.031-0.085,0.021-0.116,0.01c-0.042-0.021-0.063-0.068-0.053-0.105l0.037-0.348l-0.19,0.121l-0.142,0.828
		c0,0.058-0.048,0.084-0.096,0.084c-0.005,0-0.01,0-0.026,0c-0.058-0.01-0.1-0.058-0.089-0.115l0.115-0.654l-0.326,0.232
		c-0.011,0.021-0.021,0.021-0.043,0.021c-0.042,0-0.079-0.021-0.1-0.053c-0.026-0.031-0.016-0.09,0.026-0.116L150.989,89.742z
		 M151.685,89.289c0.037,0.021,0.053,0.063,0.042,0.095l-0.031,0.396l0.337-0.222c0.006-0.005,0.032-0.016,0.043-0.016
		c0.01,0,0.031,0.005,0.042,0.011l0.369,0.147l-0.105-0.38c-0.011-0.037-0.011-0.073,0.021-0.095l0.264-0.316l-0.4-0.011
		c-0.031,0-0.063-0.026-0.074-0.058l-0.216-0.332l-0.132,0.358c-0.026,0.042-0.048,0.063-0.079,0.073l-0.391,0.096L151.685,89.289z
		 M156.004,91.019l-0.333-0.063c-0.031-0.011-0.053-0.021-0.042-0.058c0-0.037,0.021-0.053,0.063-0.043l0.433,0.08l0.132-0.105
		l-0.195-0.164c-0.011-0.005-0.021-0.031-0.011-0.047c0-0.021,0.011-0.037,0.032-0.037l0.084-0.026l-0.084-0.032l-0.401,0.143
		c-0.011,0-0.011,0.011-0.031,0c-0.016,0.011-0.037-0.005-0.053-0.021c-0.016-0.021,0.011-0.047,0.037-0.062l0.332-0.111l-0.19-0.09
		c-0.031-0.01-0.031-0.042-0.031-0.078c0.021-0.021,0.048-0.032,0.074-0.021l0.194,0.1l-0.121-0.332
		c-0.011-0.031,0.011-0.062,0.021-0.073c0.031,0,0.063,0.011,0.073,0.042l0.158,0.406l0.18,0.1l0.042-0.021l0.111-0.253
		l-0.006-0.059l-0.337-0.279c-0.021-0.021-0.032-0.053-0.011-0.084c0.021-0.011,0.053-0.011,0.073,0l0.264,0.221l-0.016-0.2
		c-0.016-0.031,0.016-0.068,0.048-0.068c0.037,0,0.058,0.026,0.058,0.048l0.026,0.211l0.211-0.27
		c0.032-0.016,0.053-0.026,0.085-0.005c0.01,0.016,0.021,0.053,0,0.073L156.6,90.18v0.069l0.132,0.221l0.047,0.011l0.164-0.121
		l0.09-0.438c0-0.032,0.031-0.053,0.062-0.042c0.021,0,0.032,0.021,0.032,0.053l-0.053,0.337l0.158-0.121
		c0.031-0.011,0.063-0.005,0.084,0.016c0.011,0.026,0,0.053-0.021,0.074l-0.169,0.121l0.337,0.058c0.032,0,0.053,0.032,0.053,0.063
		c-0.01,0.021-0.021,0.032-0.053,0.042c-0.01,0-0.016,0-0.016,0L157,90.438l-0.058,0.053h0.1c0.021,0,0.032,0.011,0.043,0.031
		c0.01,0.011,0,0.048,0,0.059l-0.175,0.185l0.153,0.079l0.422-0.143c0.031-0.026,0.053,0.011,0.074,0.031
		c0.01,0.021,0,0.053-0.032,0.063l-0.332,0.11l0.189,0.09c0.021,0.021,0.032,0.048,0.021,0.074
		c-0.011,0.011-0.037,0.031-0.048,0.031c-0.005,0.006-0.031,0-0.031,0l-0.185-0.095l0.11,0.332c0.021,0.017,0,0.048-0.026,0.059
		c-0.005,0-0.005,0.011-0.01,0c-0.026,0.011-0.053,0-0.059-0.021l-0.147-0.422l-0.11-0.053l0.047,0.18
		c0.006,0.026,0,0.042-0.016,0.063c-0.005,0-0.021,0-0.031,0c-0.017,0.01-0.017,0-0.026,0l-0.211-0.085l0.016,0.116l0.343,0.285
		c0.021,0.031,0.021,0.058,0,0.073c-0.021,0.016-0.026,0.021-0.037,0.026c-0.011,0-0.031-0.005-0.042-0.011l-0.264-0.227
		l0.026,0.211c0,0.026-0.026,0.048-0.053,0.053c-0.032,0-0.063-0.016-0.063-0.048l-0.011-0.205l-0.222,0.264
		c-0.021,0.021-0.058,0.031-0.084,0.011c-0.016-0.021-0.016-0.053-0.005-0.074l0.284-0.337l-0.005-0.116l-0.19,0.116
		c-0.021,0.021-0.042,0.01-0.058,0c-0.016,0-0.026-0.021-0.026-0.043l0.021-0.189l-0.105,0.074l-0.09,0.432
		c0,0.021-0.016,0.048-0.037,0.053c-0.005-0.005-0.005,0-0.016-0.005c-0.026-0.005-0.042-0.037-0.037-0.068l0.058-0.338
		l-0.163,0.116c0,0-0.011,0.016-0.037,0.016c-0.016,0-0.026-0.016-0.047-0.037c-0.011-0.021-0.006-0.053,0.026-0.062L156.004,91.019
		z M156.389,90.792c0.021,0.01,0.021,0.031,0.021,0.042l-0.021,0.206l0.179-0.116c0.011,0,0.011-0.021,0.021-0.011
		c0-0.011,0.021,0,0.021,0.011l0.2,0.073l-0.063-0.195c-0.005-0.025,0-0.036,0.016-0.047l0.138-0.153l-0.211-0.016
		c-0.026,0-0.037-0.011-0.048-0.031l-0.116-0.169l-0.073,0.189c-0.011,0.011-0.032,0.037-0.043,0.043l-0.2,0.042L156.389,90.792z
		 M146.322,93.376l0.322-0.227l-0.623-0.111c-0.062-0.016-0.1-0.058-0.095-0.116c0.011-0.053,0.063-0.084,0.116-0.079l0.822,0.138
		l0.274-0.19l-0.369-0.295c-0.031-0.031-0.042-0.068-0.031-0.101c0-0.047,0.031-0.068,0.068-0.079l0.132-0.031l-0.127-0.068
		l-0.791,0.301c-0.01,0-0.01,0-0.021,0c-0.042,0.01-0.095-0.021-0.105-0.069c-0.016-0.042,0.005-0.11,0.063-0.11l0.606-0.232
		l-0.354-0.158c-0.053-0.021-0.074-0.084-0.053-0.115c0.021-0.059,0.084-0.08,0.126-0.053l0.343,0.152l-0.221-0.596
		c-0.017-0.053,0.005-0.105,0.068-0.127c0.042-0.021,0.1,0,0.11,0.063l0.301,0.791l0.348,0.158l0.085-0.026l0.189-0.479
		l-0.005-0.095l-0.654-0.555c-0.042-0.025-0.042-0.1-0.005-0.121c0.031-0.058,0.105-0.058,0.126-0.021l0.501,0.411l-0.036-0.38
		c-0.011-0.058,0.036-0.11,0.089-0.11c0.059-0.011,0.111,0.026,0.111,0.09l0.042,0.39l0.411-0.501
		c0.032-0.058,0.095-0.058,0.132-0.011c0.048,0.026,0.048,0.085,0.011,0.122l-0.538,0.653l0.006,0.101l0.264,0.427l0.105,0.011
		l0.316-0.222l0.147-0.822c0.011-0.059,0.058-0.095,0.11-0.085c0.059,0.011,0.101,0.063,0.09,0.116l-0.116,0.633l0.327-0.222
		c0.042-0.026,0.105-0.021,0.137,0.026c0.026,0.048,0.017,0.111-0.031,0.132l-0.327,0.222l0.644,0.11
		c0.053,0.006,0.095,0.069,0.074,0.111c-0.011,0.053-0.043,0.084-0.085,0.09c-0.005,0-0.021-0.006-0.031-0.006l-0.823-0.137
		l-0.121,0.095h0.143c0.031,0.005,0.074,0.021,0.084,0.063c0.026,0.031,0.011,0.074-0.01,0.105l-0.327,0.354l0.311,0.137
		l0.786-0.279c0.063-0.031,0.116,0,0.121,0.058c0.021,0.037-0.011,0.09-0.058,0.122l-0.602,0.205l0.349,0.164
		c0.042,0.021,0.062,0.084,0.042,0.126c-0.021,0.032-0.053,0.053-0.09,0.058c-0.011,0.006-0.026,0.006-0.042-0.005l-0.343-0.163
		l0.211,0.606c0.011,0.005,0.011,0.011,0,0.016l-0.19,0.016l-0.273-0.759l-0.211-0.105l0.095,0.348c0.016,0.037,0,0.074-0.026,0.095
		c-0.026,0.016-0.037,0.032-0.059,0.032c-0.021,0-0.031,0-0.053-0.011l-0.39-0.169l0.021,0.242l0.433,0.359l-0.264,0.031
		l-0.147-0.127l0.026,0.138l-0.195,0.011l-0.016-0.111l-0.121,0.143l-0.274,0.031l0.369-0.432l-0.042-0.243l-0.343,0.232
		c-0.037,0.021-0.09,0.021-0.111,0.011c-0.031-0.021-0.042-0.053-0.042-0.105l0.021-0.349l-0.18,0.121l-0.132,0.797l-0.2,0.021
		c0-0.01,0-0.021,0-0.021l0.11-0.639l-0.326,0.222c-0.017,0.011-0.026,0.016-0.037,0.016c-0.037,0.006-0.074-0.005-0.09-0.037
		C146.264,93.444,146.285,93.402,146.322,93.376z M147.35,92.7c0.021,0.037,0.032,0.069,0.032,0.09l-0.032,0.401l0.332-0.211
		c0.011-0.011,0.026-0.011,0.037-0.021c0.016,0,0.037,0.011,0.048,0.011l0.363,0.147l-0.105-0.38c-0.01-0.042,0-0.073,0.011-0.095
		l0.264-0.306l-0.385-0.021c-0.048,0-0.058-0.021-0.079-0.042l-0.211-0.332l-0.137,0.354c-0.011,0.031-0.032,0.068-0.074,0.068
		l-0.374,0.095L147.35,92.7z"/>
</g>
<g>
</g>
<g>
</g>
<g>
</g>
<g>
</g>
<g>
</g>
<g>
</g>
<g>
</g>
<g>
</g>
<g>
</g>
<g>
</g>
<g>
</g>
<g>
</g>
<g>
</g>
<g>
</g>
<g>
</g>
</svg>
