<?xml version="1.0" encoding="iso-8859-1"?>
<!-- Generator: Adobe Illustrator 16.0.0, SVG Export Plug-In . SVG Version: 6.00 Build 0)  -->
<!DOCTYPE svg PUBLIC "-//W3C//DTD SVG 1.1//EN" "http://www.w3.org/Graphics/SVG/1.1/DTD/svg11.dtd">
<svg version="1.1" id="Capa_1" xmlns="http://www.w3.org/2000/svg" xmlns:xlink="http://www.w3.org/1999/xlink" x="0px" y="0px"
	 width="143.447px" height="143.448px" viewBox="0 0 143.447 143.448" style="enable-background:new 0 0 143.447 143.448;"
	 xml:space="preserve">
<g>
	<path d="M91.004,66.875c-1.551-1.833-1.187-3.539,0.274-4.327c1.813-0.97,3.538-0.443,5.089,1.376
		c0.258,0.314,0.475,0.627,0.644,0.958c-0.043-0.896,0.168-1.535,0.622-1.506c0.591,0.058,1.392,1.134,1.271,2.452
		c-0.105,1.058-0.759,1.933-1.339,2.228c-0.122,0.443-0.343,0.833-0.691,1.128C95.623,70.262,92.549,68.699,91.004,66.875z
		 M112.203,57.002c-0.712,0-1.287,0.577-1.287,1.289c0,0.715,0.575,1.292,1.287,1.292c0.717,0,1.292-0.577,1.292-1.292
		C113.495,57.58,112.92,57.002,112.203,57.002z M119.95,57.002c-0.718,0-1.292,0.577-1.292,1.289c0,0.715,0.574,1.292,1.292,1.292
		c0.706,0,1.281-0.577,1.281-1.292C121.242,57.58,120.656,57.002,119.95,57.002z M105.132,58.946c0-1.042,0.506-1.943,1.275-2.531
		c-0.132-0.021-0.253-0.098-0.3-0.227c-0.026-0.066-0.032-0.143-0.032-0.248c0-0.082-0.021-0.2-0.042-0.358
		c-0.121-1.031-0.396-3.449,1.34-5.411c0.332-0.377,0.754-0.706,1.207-1.015c2.099-6.03,9.397-9.785,13.595-9.785
		c0.606,0,1.013,0.093,1.287,0.253c-0.005-0.084-0.026-0.166-0.026-0.253c0-1.371,1.118-2.489,2.5-2.489
		c1.387,0,2.494,1.118,2.494,2.489s-1.107,2.489-2.494,2.489c-0.797,0-1.503-0.382-1.957-0.971
		c-0.143,1.712-1.571,4.752-0.058,8.504c0.311,0.24,0.611,0.493,0.859,0.772c1.74,1.956,1.466,4.38,1.334,5.41
		c-0.016,0.158-0.026,0.277-0.026,0.359c0,0.372-0.2,0.464-0.321,0.485c0.759,0.594,1.26,1.49,1.26,2.526
		c0,1.107-0.559,2.086-1.413,2.668c0.786,0.81,1.276,1.917,1.276,3.144c0,2.483-2.015,4.503-4.514,4.503
		c-0.19,0-0.354-0.021-0.549-0.053c0.016,0.016,0.016,0.037,0.016,0.053c0,2.663-2.589,6.191-5.774,6.191
		c-3.195,0-5.779-3.528-5.779-6.191c0-0.016,0-0.037,0-0.053c-0.18,0.032-0.358,0.053-0.549,0.053c-2.494,0-4.503-2.02-4.503-4.503
		c0-1.227,0.495-2.334,1.275-3.144C105.675,61.037,105.11,60.058,105.132,58.946z M119.95,64.681c0-0.717-1.73-0.862-3.871-0.862
		c-2.146,0-3.881,0.145-3.881,0.862c0,0.72,1.734,3.014,3.881,3.014C118.215,67.694,119.95,65.4,119.95,64.681z M125.477,56.377
		c-0.095-0.045-0.195-0.105-0.316-0.195c-0.749-0.519-3.048-2.091-9.092-2.091c-6.054,0-8.343,1.572-9.091,2.091
		c-0.127,0.09-0.222,0.15-0.312,0.195c0.817,3.892-0.137,5.737,1.814,6.057c1.471,0.245,4.946-0.768,5.948-1.326
		c0.311,0.469,0.917,0.656,1.64,0.656c0.728,0,1.334-0.192,1.635-0.656c1.002,0.559,4.472,1.571,5.943,1.332
		C125.603,62.121,124.648,60.269,125.477,56.377z M121.542,45.688l-0.517,0.478l-0.706-0.158l0.295,0.644l-0.358,0.609l0.701-0.079
		l0.47,0.533l0.137-0.691l0.654-0.274l-0.617-0.346L121.542,45.688z M120.377,41.422l-0.189,0.309l0.358-0.037l0.237,0.269
		l0.079-0.351l0.332-0.14l-0.327-0.185l-0.031-0.361l-0.279,0.243l-0.343-0.079L120.377,41.422z M120.214,43.668l-0.264,0.462
		l0.527-0.061l0.348,0.401l0.105-0.524l0.496-0.211l-0.47-0.264l-0.042-0.53l-0.401,0.356l-0.511-0.119L120.214,43.668z
		 M117.492,41.936l-0.179,0.314l0.348-0.042l0.242,0.274l0.079-0.355l0.338-0.14l-0.327-0.179l-0.021-0.361l-0.27,0.243
		l-0.354-0.082L117.492,41.936z M115.91,45.269l-0.775,1.269l1.467-0.169l0.976,1.118l0.306-1.45l1.36-0.58l-1.297-0.728
		l-0.116-1.474l-1.097,1.005l-1.44-0.335L115.91,45.269z M113.025,45.467l-0.279,0.461l0.533-0.066l0.353,0.406l0.111-0.524
		l0.479-0.206l-0.453-0.264l-0.048-0.536l-0.396,0.356l-0.517-0.113L113.025,45.467z M111.544,46.954l-0.174,0.312l0.354-0.042
		l0.242,0.269l0.079-0.355l0.332-0.14l-0.321-0.179l-0.021-0.361l-0.284,0.25l-0.338-0.087L111.544,46.954z M106.682,55.502
		c0,0.042,0,0.073,0.011,0.108c0.918-0.638,3.27-2.154,9.376-2.154c6.097,0,8.459,1.516,9.376,2.154
		c0.017-0.035,0.017-0.071,0.021-0.108c0.105-0.947,0.364-3.17-1.187-4.904c-1.477-1.664-4.245-2.511-8.211-2.511
		s-6.729,0.842-8.216,2.511C106.302,52.338,106.571,54.556,106.682,55.502z M116.058,59.326c-0.638,0-1.202,0.393-1.429,0.954
		c0.343-0.406,0.839-0.67,1.413-0.67c0.596,0,1.107,0.288,1.466,0.72C117.271,59.745,116.717,59.326,116.058,59.326z M122.66,70.163
		l-0.021-0.026l-0.021,0.068L122.66,70.163z M98.508,86.13c0.923-4.098,4.161-9.851,6.354-13.452l-5.985-2.521
		c-0.775,0.58-1.661,0.834-2.568,0.327c-0.168-0.105-0.231-0.269-0.363-0.39c1.26,0.701,2.705-0.775,3.56-2.271
		c0.864-1.49,1.413-3.473,0.189-4.211c0.174,0.042,0.338,0.021,0.512,0.119c0.77,0.443,1.05,1.155,1.05,1.954l4.482,2.587
		c0.728,0.844,1.714,1.384,2.831,1.647l0.138,0.09c0.264,0.053,0.517,0.121,0.785,0.138c0.021,0.126,0.105,0.273,0.132,0.405
		c0.169,0.744,0.465,1.472,0.876,2.157c0,0.011,0,0.011,0,0.011c0.411,0.696,0.938,1.339,1.55,1.898
		c1.118,1.013,2.5,1.719,4.029,1.719c0.728,0,1.413-0.2,2.067-0.464c-1.018,2.125-1.624,4.456-1.624,6.961
		c0,2.109,0.432,4.213,1.297,6.254c-0.675,0.217-1.751,0.496-2.964,0.781c-6.818-0.454-14.707-2.643-15.198-2.458
		c-0.01,0-0.026,0.026-0.036,0.032C99.183,86.948,98.813,86.515,98.508,86.13z M102.537,79.702c0,0.834,0.69,1.524,1.534,1.524
		c0.839,0,1.524-0.69,1.524-1.524c0-0.854-0.686-1.539-1.524-1.539C103.228,78.152,102.537,78.837,102.537,79.702z M100.57,84.965
		c0,0.844,0.686,1.519,1.523,1.519c0.839,0,1.535-0.675,1.535-1.519c0-0.85-0.696-1.535-1.535-1.535
		C101.256,83.43,100.57,84.116,100.57,84.965z M136.777,65.735c0.374,0.084,1.936-1.091,2.067-1.485
		c-0.612,0.512-1.192,0.889-1.914,0.852C137.02,65.485,136.403,65.643,136.777,65.735z M141.186,63.71l-0.211-0.019
		c-0.427-0.042-0.822,0.098-0.901,0.298c-0.063,0.211,0.18,0.557,0.554,0.772l0.189,0.103c0.359,0.227,0.771,0.077,0.907-0.33
		l0.011-0.011C141.851,64.108,141.613,63.752,141.186,63.71z M138.528,62.888l-0.18-0.114c-0.358-0.221-0.78-0.068-0.896,0.335
		l-0.011,0.019c-0.137,0.398,0.105,0.77,0.527,0.805l0.211,0.026c0.433,0.031,0.823-0.093,0.896-0.298
		C139.146,63.455,138.892,63.099,138.528,62.888z M140.695,67.025c0.349,0.14-0.042-0.34,0.259-0.583
		c-0.606-0.411-0.85-1.052-1.034-1.835C139.788,65,140.348,66.875,140.695,67.025z M143.211,64.833l-0.079,0.208
		c-0.127,0.396-0.364,0.699-0.686,0.87c-0.189,0.098-0.396,0.153-0.606,0.153c0.143,0.095,0.295,0.192,0.459,0.306l0.369,0.248
		l-0.338,0.298c-0.143,0.124-0.195,0.524-0.222,0.804c-0.047,0.39-0.084,0.736-0.353,0.907c-0.096,0.061-0.243,0.127-0.475,0.051
		l-0.069-0.021c-0.163-0.076-0.332-0.222-0.517-0.443l-0.791,2.365c0.886,1.234,1.435,2.742,1.435,4.388
		c0,4.161-3.396,7.552-7.567,7.552c-0.011,0-0.016,0-0.037,0c0.011,0.116,0.037,0.216,0.037,0.338
		c0,8.511,0.105,15.435-8.433,15.435h-0.622l2.764,4.794h9.45c0.906,0,1.629,0.717,1.629,1.624s-0.723,1.63-1.629,1.63H84.043
		c-3.296,0-5.98-2.685-5.98-5.98c0-3.307,2.685-5.975,5.98-5.975c0.896,0,1.63,0.732,1.63,1.64c0,0.902-0.733,1.63-1.63,1.63
		c-1.492,0-2.721,1.234-2.721,2.716c0,1.503,1.229,2.737,2.721,2.737h10.209l2.764-4.794h-3.924c-4.229,0-7.667-3.433-7.667-7.679
		c0-2.736,1.444-5.12,3.591-6.48l-48.879-1.762c-0.005,0.032-0.044,0.096-0.044,0.132c-0.069,1.366,3.406,5.432,6.913,7.23
		c3.494,1.787,6.392,0.97,7.829,1.646c1.442,0.686,1.669,3.902,3.37,4.604c1.701,0.69,12.619,4.951,12.284,6.491
		c-0.334,1.562-13.12-5.3-14.341-5.021c1.392,2.363,12.311,7.721,11.609,8.907c-0.707,1.218-10.275-3.887-11.965-5.479
		c-1.69-1.603-2.787-3.496-5.11-4.524c-2.331-1.007-11.578-0.2-16.071-3.132c-0.707-0.465-3.72,1.84-7.462,2.637
		c-4.288,0.906-8.024-0.459-10.832,0.801c-2.474,1.107-7.781-3.206-9.062-2.795c-0.62,0.201,1.021,1.946,3.132,3.069
		c2.966,1.587,3.905,3.027,3.293,3.333c-1.203,0.622-3.428,0.532-3.428,0.532s0.949,2.737-0.401,2.347
		C8.52,102.773-1.384,90.259,0.164,88.815c1.556-1.424,8.295-0.369,8.295-0.369s-1.318-7.521-0.093-11.781
		c1.221-4.25,5.894-8.337,5.87-9.819c-0.016-1.479-4.396-3.805-4.396-3.805s-2.001-2.004-0.485-2.275
		c0.762-0.129,4.234-0.435,6.916-0.997c2.312-0.487,3.383-1.091,4.619-1.139c-0.606-1.967-1.837-5.121-2.787-5.79
		c-0.261-0.185-0.319-0.546-0.148-0.81c0.185-0.267,0.551-0.324,0.812-0.15c1.149,0.804,2.223,3.459,2.808,5.165
		c0.636-1.004,1.538-1.798,2.634-2.455c0.438-0.638,3.072-4.601,2.236-7.491c-0.34-1.16-1.194-1.988-2.623-2.545
		c-0.298-0.118-0.448-0.453-0.33-0.749c0.108-0.303,0.448-0.448,0.749-0.334c1.756,0.675,2.874,1.787,3.312,3.304
		c0.686,2.323-0.427,5.065-1.371,6.815c1.176-0.509,2.466-0.946,3.805-1.384c0.602-0.944,3.513-5.875,0.488-8.472
		c-0.237-0.211-0.267-0.578-0.056-0.82c0.2-0.243,0.578-0.277,0.815-0.061c3.014,2.597,1.503,6.697,0.396,8.819
		c1.403-0.458,2.803-0.946,4.092-1.529c0.443-0.387,4.089-3.781,1.368-6.981c-0.216-0.248-0.189-0.617,0.058-0.825
		c0.248-0.206,0.617-0.174,0.82,0.063c1.833,2.16,1.427,4.477,0.427,6.265c2.209-1.54,3.752-3.694,3.905-7.069
		c0.016-0.324,0.285-0.567,0.594-0.557c0.329,0.021,0.572,0.293,0.562,0.604c-0.274,6.006-4.454,8.553-9.023,10.283
		c0.831,1.308,3.401,4.353,8.369,2.7c0.298-0.113,0.633,0.059,0.741,0.361c0.092,0.309-0.061,0.633-0.366,0.741
		c-0.417,0.14-0.823,0.242-1.2,0.33c-5.163,1.11-7.862-2.436-8.651-3.734c-0.804,0.277-1.603,0.541-2.386,0.789
		c-3.699,1.205-7.225,2.355-8.538,4.823c1.88-0.113,3.839,0.503,5.843,1.489c0.978-0.44,2.974-1.592,3.375-3
		c0.167-0.628,0.016-1.247-0.475-1.912c-0.2-0.258-0.147-0.622,0.114-0.814c0.253-0.195,0.619-0.143,0.814,0.119
		c0.712,0.959,0.934,1.943,0.648,2.927c-0.443,1.577-2.112,2.732-3.219,3.351c1.026,0.58,2.067,1.227,3.09,1.901
		c1.191-0.279,3.696-1.11,4.179-2.376c0.176-0.475,0.058-0.986-0.385-1.582c-0.187-0.253-0.145-0.619,0.119-0.814
		c0.25-0.19,0.622-0.135,0.799,0.124c0.693,0.917,0.886,1.824,0.556,2.684c-0.572,1.495-2.597,2.371-3.968,2.813
		c0.135,0.093,0.264,0.185,0.406,0.274c1.366,0.91,2.71,1.793,4,2.555c1.961-0.411,5.033-1.468,5.563-2.787
		c0.053-0.156,0.231-0.609-0.309-1.345c-0.195-0.258-0.15-0.625,0.113-0.815c0.248-0.189,0.627-0.134,0.81,0.124
		c0.767,1.025,0.68,1.901,0.458,2.452c-0.665,1.69-3.37,2.7-5.128,3.19c2.104,1.065,4.061,1.643,5.756,1.184
		c1.521-0.406,2.787-1.637,3.823-3.754c0.146-0.29,0.496-0.409,0.778-0.264c0.3,0.14,0.403,0.491,0.269,0.778
		c-1.21,2.441-2.7,3.86-4.566,4.364c-0.098,0.026-0.185,0.047-0.282,0.074c-3.235,0.691-6.874-1.455-10.729-3.994
		c-0.288,1.289-0.509,3.369,0.351,4.4c0.475,0.569,1.248,0.77,2.355,0.638c0.319-0.047,0.609,0.195,0.651,0.512
		c0.035,0.296-0.156,0.569-0.458,0.633c-0.021,0.011-0.037,0.016-0.053,0.011c-1.514,0.185-2.653-0.169-3.386-1.055
		c-1.387-1.661-0.788-4.707-0.498-5.824c-0.053-0.037-0.119-0.077-0.167-0.114c-0.49-0.33-0.989-0.659-1.49-0.978
		c-3.488-2.283-7-4.324-10.006-3.989c0.702,1.036,0.749,3.396,0.749,3.396s1.374,0.557,2.014,0.86
		c1.695,0.793-2.666,1.732-2.666,1.732l-1.426,1.102c0,0-1.901,11.198-1.854,13.624c0.008,0.137,0.039,0.279,0.055,0.422L34.8,80.82
		c1.173-0.095,2.117-0.053,2.479-0.422c1.179-1.213,3.267-3.606,4.174-3.043c0.654,0.396-0.335,2.188-0.955,3.676l47.411,1.709
		l-2.674-4.045l2.722-1.798l3.053,4.63l-1.888,1.249l4.419,0.158c0.043,0,0.053,0.032,0.085,0.037
		c3.101,0.232,2.015,2.283,6.992,6.645c5.289,4.631,18.415,0,18.415,0c-1.018-2.057-1.635-4.351-1.635-6.792
		c0-7.604,5.495-13.877,12.709-15.177l1.487-4.504l3.934,1.295l-0.042-0.189l0.453,0.013c0.19,0.011,0.359,0.021,0.538,0.026
		c-0.427-0.329-0.617-0.891-0.459-1.474l-3.907-1.287l0.907-2.731l6.607,2.17l-0.512,1.524c0.138,0.227,0.259,0.458,0.332,0.653
		c0.069,0,0.132,0.011,0.206,0.032l0.232,0.073c0.062,0.035,0.121,0.056,0.179,0.098c0.174-0.113,0.422-0.221,0.659-0.329
		l0.496-1.521l1.461,0.475l-0.232,0.714l0.285,0.026c0.284,0.026,0.511,0.171,0.622,0.404
		C143.575,63.568,143.354,64.222,143.211,64.833z M30.589,82.001l-11.201-0.396c0.833,1.861,2.9,3.443,6.097,2.6
		C27.045,83.784,28.843,82.808,30.589,82.001z M123.81,103.058l-2.763-4.783h-20.472l-2.769,4.783H123.81z M139.673,66.22
		c-0.111-0.382-0.185-0.788-0.228-1.16c-0.042,0-0.089-0.019-0.137-0.029l-0.232-0.084c-0.042-0.011-0.089-0.029-0.126-0.061
		c-0.253,0.293-0.549,0.572-0.876,0.814l-0.844,2.571c0.518,0.282,1.008,0.611,1.445,0.999L139.673,66.22z M142.699,63.056
		l-0.374-0.034c-0.654-0.058-1.94,0.456-2.326,0.817c-0.031-0.124-0.1-0.222-0.2-0.253l-0.242-0.082
		c-0.105-0.026-0.211,0-0.316,0.087c-0.085-0.519-0.823-1.698-1.393-2.035l-0.332-0.2c-0.633-0.385-0.918,0.743-1.149,1.453v0.01
		c-0.232,0.712,0.179,1.351,0.928,1.432l0.38,0.026c0.327,0.037,0.628,0,0.886-0.065c-0.822,0.453-1.598,0.448-2.637,0.396
		c0.169,0.69-1.044,1.65-0.385,1.819c0.585,0.124,2.621-0.87,3.438-2.139c0.026,0.166,0.105,0.295,0.216,0.335l0.232,0.074
		c0.126,0.044,0.253-0.021,0.369-0.135c-0.111,1.514,0.949,3.522,1.508,3.755c0.011,0,0.011,0,0.042,0
		c0.554,0.171,0.19-1.25,0.723-1.693c-0.881-0.569-1.508-1.03-1.903-1.882c0.174,0.216,0.396,0.417,0.686,0.578l0.327,0.2
		c0.633,0.382,1.354,0.113,1.587-0.588l0.011-0.029C143,64.201,143.438,63.127,142.699,63.056z M81.143,77.719
		c0.485-0.232-0.433-1.867,0.517-2.721c0.896-0.823,2.331-0.586,3.513-0.823c-0.597-0.031-1.292-0.264-1.946-0.69
		c-1.292-0.865-1.93-2.178-1.408-2.959c0.512-0.77,1.973-0.686,3.259,0.169c0.101,0.063,0.19,0.132,0.274,0.211
		c0-1.013,0.306-1.779,0.76-1.83c0.517-0.037,1.013,0.892,1.112,2.104c0.079,0.76-0.042,1.424-0.248,1.835
		c1.098-0.706,1.572-2.384,3.164-3.085c0.896-0.385,2.247-0.121,2.368,1.571l0.664-0.247l-1.233,1.613
		c-0.312-0.717-0.934-2.062-1.698-1.804c-1.551,0.538-3.027,2.584-3.607,2.421c-0.021,0.016-0.053,0.021-0.073,0.042
		c-0.021,0.053-0.085,0.143-0.169,0.284c-0.602,0.966-2.062,0.887-3.322,1.957c-0.896,0.78,0.163,2.452-0.833,3.08L81.143,77.719z
		 M85.762,71.264c0.564,0.56,0.902,1.224,0.902,1.772c0.2-0.222,0.327-0.738,0.274-1.318c-0.074-0.78-0.391-1.36-0.712-1.34
		C85.989,70.405,85.805,70.758,85.762,71.264z M85.778,71.987c0.073,0.543,0.273,0.986,0.506,1.113
		C86.306,72.751,86.121,72.34,85.778,71.987z M86.031,73.595c0,0,0-0.005,0.011-0.005c0.042-0.037,0.089-0.09,0.137-0.143
		c0.016-0.021,0.021-0.053,0.031-0.079c-0.358-0.206-0.659-0.859-0.796-1.692c-0.031-0.032-0.074-0.074-0.121-0.105
		c-0.833-0.544-1.746-0.58-2.083-0.105c-0.322,0.484,0.084,1.308,0.896,1.866C84.829,73.811,85.62,73.901,86.031,73.595z
		 M94.806,79.006l-3.068-4.625l-2.711,1.798l3.059,4.62L94.806,79.006z M83.347,76.443l1.435,2.173l2.731-1.793l-1.439-2.173
		L83.347,76.443z M90.408,71.765l-2.722,1.799l1.445,2.178l2.721-1.804L90.408,71.765z M95.781,54.859l0.143-0.113
		c0.259-0.216,0.422-0.475,0.358-0.588c-0.073-0.113-0.379-0.113-0.706,0.005l-0.158,0.053c-0.316,0.119-0.464,0.396-0.343,0.612
		l0.011,0.005C95.207,55.054,95.523,55.059,95.781,54.859z M95.987,56.151c0.264-0.164,0.58-1.437,0.459-1.658
		c-0.111,0.527-0.243,0.965-0.686,1.35C96.009,55.94,95.739,56.317,95.987,56.151z M98.872,54.529
		c0.274-0.129-0.185-0.098-0.127-0.351c-0.559,0.174-1.013,0.063-1.508-0.118C97.354,54.276,98.593,54.659,98.872,54.529z
		 M97.723,53.736l0.163-0.059c0.312-0.116,0.464-0.39,0.338-0.611l-0.006-0.011c-0.121-0.227-0.442-0.227-0.706-0.011l-0.132,0.104
		c-0.27,0.216-0.422,0.479-0.359,0.593C97.084,53.854,97.406,53.854,97.723,53.736z M90.424,54.363l-0.079-3.198l2.848-1.592
		l2.315,4.126c0.279,0,0.559,0.026,0.759,0.068c0.032-0.037,0.085-0.074,0.121-0.103l0.158-0.098
		c0.059-0.026,0.111-0.048,0.153-0.063c0.068-0.2,0.195-0.443,0.338-0.675l-2.311-4.132l2.821-1.598l2.7,1.727l0.322,2.252
		l-1.635,0.918c0.095,0.132,0.168,0.271,0.242,0.411l0.063,0.103c0.126,0.222,0.143,0.47,0.042,0.702
		c-0.063,0.142-0.153,0.266-0.264,0.379c0.11-0.039,0.253-0.082,0.4-0.124l0.333-0.113l-0.043,0.232l1.129-0.633l0.575,4.126
		L99.9,57.931l-1.714-3.072c-0.375-0.087-0.712-0.222-0.986-0.391c-0.048,0.024-0.079,0.051-0.116,0.066l-0.163,0.098
		c-0.037,0.021-0.074,0.037-0.111,0.047c0,0.325-0.062,0.691-0.174,1.044l1.725,3.083l-1.519,0.859l-3.217-2.658l1.118-0.625
		l-0.222-0.082l0.264-0.237c0.116-0.098,0.231-0.195,0.327-0.288c-0.438,0.114-0.828-0.01-1.028-0.345l-0.063-0.119
		c-0.09-0.134-0.158-0.279-0.222-0.427l-1.64,0.917L90.424,54.363z M94.311,55.286v0.011c0.222,0.388,0.78,0.398,1.233,0.032
		l0.232-0.195c0.206-0.161,0.369-0.333,0.479-0.501c-0.242,0.609-0.69,1.021-1.302,1.556c0.422,0.171,0.221,1.17,0.675,0.886
		c0.39-0.267,1.06-1.719,0.907-2.632c0.105,0.051,0.2,0.061,0.3,0.011L97,54.358c0.084-0.05,0.126-0.143,0.132-0.256
		c0.701,0.617,2.294,0.799,2.721,0.588c0.501-0.237-0.485-0.577-0.385-1.031c-0.791,0.245-1.382,0.422-2.025,0.314
		c0.201-0.016,0.443-0.059,0.686-0.15l0.285-0.103c0.554-0.201,0.822-0.68,0.611-1.071l-0.01-0.01
		c-0.222-0.393-0.496-1.02-0.955-0.654l-0.242,0.195c-0.406,0.324-0.896,1.21-0.923,1.55c-0.09-0.037-0.169-0.037-0.253,0.006
		l-0.169,0.098c-0.068,0.047-0.116,0.124-0.127,0.205c-0.311-0.152-1.312-0.189-1.804-0.019l-0.284,0.105
		C93.698,54.329,94.089,54.89,94.311,55.286z"/>
</g>
<g>
</g>
<g>
</g>
<g>
</g>
<g>
</g>
<g>
</g>
<g>
</g>
<g>
</g>
<g>
</g>
<g>
</g>
<g>
</g>
<g>
</g>
<g>
</g>
<g>
</g>
<g>
</g>
<g>
</g>
</svg>
